<svg id="Capa_1" enable-background="new 0 0 512 512" height="70" viewBox="0 0 512 512" width="70" xmlns="http://www.w3.org/2000/svg"><g><path d="m512 256c0 56.8-18.51 109.29-49.81 151.75-46.61 63.23-121.61 104.25-206.19 104.25-64.96 0-124.27-24.2-169.41-64.08-12.47-11.01-23.86-23.23-33.99-36.46-32.99-43.1-52.6-96.99-52.6-155.46 0-141.38 114.62-256 256-256s256 114.62 256 256z" fill="#f4aa39"/><path d="m462.19 198v209.75c-46.61 63.23-121.61 104.25-206.19 104.25-82.91 0-156.62-39.42-203.4-100.54v-213.46z" fill="#f1f4f6"/><path d="m86.59 198v249.92c-12.47-11.01-23.86-23.23-33.99-36.46v-213.46z" fill="#d0e2e7"/><path d="m52.595 198h409.598v94.866h-409.598z" fill="#d1d1d1"/><g><g fill="#fd4343"><path d="m238.421 143.081s-105.526-151.855-162.24-114.284-49.216 118.219 35.367 139.856"/><path d="m276.367 143.081s105.526-151.855 162.24-114.284 49.216 118.219-35.367 139.856"/></g></g><path d="m284.488 66.994h-54.188c-14.726 0-26.664 11.938-26.664 26.664v64.589h107.515v-64.59c.001-14.726-11.937-26.663-26.663-26.663z" fill="#fd4343"/><path d="m254.701 66.99c-14.726 0-26.666 11.941-26.666 26.667v64.595h-24.398v-64.595c0-14.726 11.941-26.667 26.666-26.667z" fill="#d73131"/><g fill="#d73131"><path d="m178.33 156.907s-98.406-102.154-115.647-61.437 95.77 82.218 95.77 82.218"/><path d="m336.458 156.907s98.406-102.154 115.647-61.437-95.77 82.218-95.77 82.218"/></g><path d="m472.12 138.369h-429.452c-7.767 0-14.064 6.297-14.064 14.064v102.878c0 7.767 6.297 14.064 14.064 14.064h429.452c7.767 0 14.064-6.297 14.064-14.064v-102.878c0-7.767-6.297-14.064-14.064-14.064z" fill="#f1f4f6"/><path d="m77.903 269.37h-35.239c-7.771 0-14.06-6.29-14.06-14.06v-102.877c0-7.77 6.29-14.074 14.06-14.074h35.238c-7.77 0-14.074 6.303-14.074 14.074v102.877c.001 7.77 6.305 14.06 14.075 14.06z" fill="#d0e2e7"/><g><path d="m453.239 140.326c-.723-12.873-11-23.149-23.873-23.872l-16.891-.948-71.873-4.043c-9.633-.542-19.04 3.048-25.862 9.87l-206.522 206.522c-10.154 10.154-10.154 26.618 0 36.772l96.536 96.536c10.322 10.322 27.058 10.322 37.38 0l206.219-206.219c6.821-6.821 10.412-16.227 9.871-25.858zm-76.131 52.258c-10.21-10.21-10.203-26.757 0-36.96s26.75-10.21 36.96 0c10.203 10.203 10.196 26.75-.007 36.953-10.204 10.203-26.75 10.21-36.953.007z" fill="#91cefb"/><g fill="#544f57"><path d="m189.144 338.267c3.905-3.905 3.905-10.237 0-14.142s-10.237-3.905-14.142 0l-24.44 24.44c-3.905 3.905-3.905 10.237 0 14.142l60.3 60.3c3.905 3.905 10.237 3.905 14.142 0s3.905-10.237 0-14.142l-23.65-23.65 15.427-15.427c3.905-3.905 3.905-10.237 0-14.142s-10.237-3.905-14.142 0l-15.427 15.427-15.437-15.437z"/><path d="m293.635 233.995c3.905-3.905 3.905-10.237 0-14.142s-10.237-3.905-14.142 0l-25.362 25.362c-3.905 3.905-3.905 10.237 0 14.142l60.19 60.19c3.905 3.905 10.237 3.905 14.142 0l25.362-25.362c3.905-3.905 3.905-10.237 0-14.142s-10.237-3.905-14.142 0l-18.291 18.291-15.953-15.953 16.421-16.421c3.905-3.905 3.905-10.237 0-14.142s-10.237-3.905-14.142 0l-16.421 16.421-15.953-15.953z"/><path d="m387.727 232-18.291 18.291-15.953-15.953 16.421-16.421c3.905-3.905 3.905-10.237 0-14.142s-10.237-3.905-14.142 0l-16.421 16.421-15.953-15.953 18.291-18.291c3.905-3.905 3.905-10.237 0-14.142s-10.237-3.905-14.142 0l-25.362 25.362c-3.905 3.905-3.905 10.237 0 14.142l60.19 60.19c3.905 3.905 10.237 3.905 14.142 0l25.362-25.362c3.905-3.905 3.905-10.237 0-14.142s-10.237-3.905-14.142 0z"/><path d="m257.917 286.037c-12.604-12.604-33.513-12.203-46.61.894l-16.142 16.142c-1.88 1.88-2.933 4.43-2.929 7.088.004 2.504.958 4.903 2.644 6.739.078.117.162.231.266.334l60.745 60.745c3.905 3.905 10.237 3.905 14.142 0s3.905-10.237 0-14.142l-18.578-18.578 43.712 2.787c2.986.191 5.749-.949 7.71-2.911 1.659-1.659 2.745-3.906 2.906-6.432.351-5.513-3.832-10.265-9.343-10.616l-34.159-2.178c7.638-12.767 6.246-29.262-4.364-39.872zm-15.036 32.467c-2.084 2.084-5.699 5.729-8.967 9.029-3.231-3.198-6.772-6.709-8.779-8.715-1.715-1.715-5.368-5.35-8.735-8.697l9.049-9.049c5.209-5.209 13.601-5.618 18.325-.894 4.725 4.725 4.316 13.117-.893 18.326z"/></g></g></g></svg>