<?xml version="1.0" ?><svg data-name="Layer 3" id="Layer_3" viewBox="0 0 32 32" xmlns="http://www.w3.org/2000/svg"><defs><style>.cls-1,.cls-3{fill:none;stroke:#0832ff;stroke-linecap:round;stroke-linejoin:round;}.cls-1{stroke-width:2px;}.cls-2{fill:#0832ff;}</style></defs><title/><path class="cls-1" d="M14.38,13.53a3.39,3.39,0,0,1-3.2,3.41A3.39,3.39,0,0,1,8,13.53a3.2,3.2,0,1,1,6.4,0Z"/><path class="cls-1" d="M17.78,24a6.6,6.6,0,0,0-13.2,0Z"/><polygon class="cls-2" points="17.13 22 5.21 22 4.58 24 17.5 24 17.13 22"/><path class="cls-1" d="M24.85,11.53a3.39,3.39,0,0,1-3.2,3.41,3.39,3.39,0,0,1-3.2-3.41,3.2,3.2,0,1,1,6.4,0Z"/><path class="cls-1" d="M17.71,22H28.24a6.6,6.6,0,0,0-12.49-3"/><line class="cls-3" x1="16.5" x2="27.5" y1="19.5" y2="19.5"/></svg>