<?xml version="1.0" ?><svg data-name="Layer 3" id="Layer_3" viewBox="0 0 32 32" xmlns="http://www.w3.org/2000/svg"><defs><style>.cls-1,.cls-2{fill:none;stroke:#0832ff;}.cls-1{stroke-linecap:round;stroke-linejoin:round;stroke-width:2px;}.cls-2{stroke-miterlimit:10;}.cls-3{fill:#0832ff;}</style></defs><title/><path class="cls-1" d="M16,23.07l6.06,4.24A1.14,1.14,0,0,0,23.8,26l-2.14-7.1,5.89-4.48a1.14,1.14,0,0,0-.66-2.05l-7.39-.15-2.43-7a1.14,1.14,0,0,0-2.15,0l-2.43,7-7.39.15a1.14,1.14,0,0,0-.66,2.05l5.89,4.48L8.2,26A1.14,1.14,0,0,0,9.94,27.3Z"/><line class="cls-2" x1="21.36" x2="14.64" y1="26.88" y2="6.09"/><polygon class="cls-3" points="18.19 11.56 20.94 20.02 27.92 13.92 27.42 12.58 18.19 11.56"/></svg>