<?xml version="1.0" ?><svg data-name="Layer 3" id="Layer_3" viewBox="0 0 32 32" xmlns="http://www.w3.org/2000/svg"><defs><style>.cls-1,.cls-2{fill:none;stroke:#0832ff;stroke-linecap:round;stroke-linejoin:round;}.cls-1{stroke-width:2px;}.cls-3{fill:#0832ff;}</style></defs><title/><path class="cls-1" d="M23.29,6.68a51.84,51.84,0,0,0-14.58,0A2,2,0,0,0,7,8.66V25H25V8.66A2,2,0,0,0,23.29,6.68Z"/><line class="cls-2" x1="7.5" x2="24.5" y1="9.5" y2="9.5"/><line class="cls-2" x1="7.5" x2="24.5" y1="16.5" y2="16.5"/><line class="cls-2" x1="16" x2="16" y1="9.5" y2="16.5"/><line class="cls-1" x1="9" x2="9" y1="27" y2="25"/><line class="cls-1" x1="23" x2="23" y1="27" y2="25"/><line class="cls-1" x1="25" x2="27" y1="14" y2="14"/><line class="cls-1" x1="5" x2="7" y1="14" y2="14"/><circle class="cls-3" cx="11" cy="20" r="1"/><circle class="cls-3" cx="21" cy="20" r="1"/><rect class="cls-3" height="2" width="18" x="7" y="23"/></svg>