<?xml version="1.0" ?><svg data-name="Layer 3" id="Layer_3" viewBox="0 0 32 32" xmlns="http://www.w3.org/2000/svg"><defs><style>.cls-1,.cls-3{fill:none;stroke:#0832ff;stroke-linecap:round;stroke-linejoin:round;}.cls-1{stroke-width:2px;}.cls-2{fill:#0832ff;}</style></defs><title/><path class="cls-1" d="M10,6H22a0,0,0,0,1,0,0V16a6,6,0,0,1-6,6h0a6,6,0,0,1-6-6V6A0,0,0,0,1,10,6Z"/><line class="cls-1" x1="13" x2="19" y1="27" y2="27"/><line class="cls-1" x1="16" x2="16" y1="27" y2="22"/><path class="cls-1" d="M22,10h4a0,0,0,0,1,0,0v3a4,4,0,0,1-4,4h0a0,0,0,0,1,0,0V10A0,0,0,0,1,22,10Z"/><path class="cls-1" d="M6,10H6a4,4,0,0,1,4,4v3a0,0,0,0,1,0,0H6a0,0,0,0,1,0,0V10A0,0,0,0,1,6,10Z" transform="translate(16 27) rotate(180)"/><rect class="cls-2" height="2" width="12" x="10" y="6"/><line class="cls-3" x1="10.5" x2="21.5" y1="9.5" y2="9.5"/></svg>