<?xml version="1.0" ?><svg data-name="Layer 3" id="Layer_3" viewBox="0 0 32 32" xmlns="http://www.w3.org/2000/svg"><defs><style>.cls-1,.cls-3{fill:none;stroke:#0832ff;}.cls-1{stroke-linecap:round;stroke-linejoin:round;stroke-width:2px;}.cls-2{fill:#0832ff;}.cls-3{stroke-miterlimit:10;}</style></defs><title/><circle class="cls-1" cx="16" cy="16" r="7"/><path class="cls-2" d="M14,9V6a1,1,0,0,1,1-1h2a1,1,0,0,1,1,1V9"/><path class="cls-2" d="M18,23v3a1,1,0,0,1-1,1H15a1,1,0,0,1-1-1V23"/><path class="cls-2" d="M9.64,12.46,7.51,10.34a1,1,0,0,1,0-1.41L8.93,7.51a1,1,0,0,1,1.41,0l2.12,2.12"/><path class="cls-2" d="M22.36,19.54l2.12,2.12a1,1,0,0,1,0,1.41l-1.41,1.41a1,1,0,0,1-1.41,0l-2.12-2.12"/><path class="cls-2" d="M9,18H6a1,1,0,0,1-1-1V15a1,1,0,0,1,1-1H9"/><path class="cls-2" d="M23,14h3a1,1,0,0,1,1,1v2a1,1,0,0,1-1,1H23"/><path class="cls-2" d="M12.46,22.36l-2.12,2.12a1,1,0,0,1-1.41,0L7.51,23.07a1,1,0,0,1,0-1.41l2.12-2.12"/><path class="cls-2" d="M19.54,9.64l2.12-2.12a1,1,0,0,1,1.41,0l1.41,1.41a1,1,0,0,1,0,1.41l-2.12,2.12"/><line class="cls-3" x1="20.5" x2="20.5" y1="11" y2="21"/></svg>