<?xml version="1.0" ?><svg data-name="Layer 3" id="Layer_3" viewBox="0 0 32 32" xmlns="http://www.w3.org/2000/svg"><defs><style>.cls-1,.cls-3{fill:none;stroke:#0832ff;}.cls-1{stroke-linecap:round;stroke-linejoin:round;stroke-width:2px;}.cls-2{fill:#0832ff;}.cls-3{stroke-miterlimit:10;}</style></defs><title/><path class="cls-1" d="M25.6,8.5h0a6.66,6.66,0,0,0-9.53-.07L16,8.35a6.66,6.66,0,0,0-9.6,0h0a7.11,7.11,0,0,0,0,9.87l8.35,8.58.55.56a1.08,1.08,0,0,0,1.56,0l8.75-9A7.11,7.11,0,0,0,25.6,8.5Z"/><path class="cls-2" d="M14.7,26.75l0,0,.55.56a1.08,1.08,0,0,0,1.56,0l8.75-9a7,7,0,0,0,2-4.68Z"/><line class="cls-3" x1="13.43" x2="26.77" y1="25.59" y2="12.25"/></svg>